<svg xmlns="http://www.w3.org/2000/svg" width="100%" height="100%" style="cursor: default;">
    <g>
        <polygon class="outside" points="40,600 820,600 820,60 220,60 40,160 " fill="#ffffff" stroke="#c0c0c0">
        </polygon>
    </g>
    <g id="wrap" width="100%" height="100%" transform="scale(1) ">
    <g>
        <polygon class="food" name="商店1号" points="80,220 80,280 120,280 140,240 100,200 " fill="#000000"  flag="false" style="cursor: move;"></polygon>

    </g>
    <g>
        <polygon class="home" name="商店2号" points="100,200 140,240 180,200 160,140 " fill="#000000"  flag="false" style="cursor: move;"></polygon>

    </g>
    <g transform="translate(0,0)">
        <polygon class="home" name="商店3号" points="160,140 180,200 240,180 200,120 " fill="#000000"  flag="false" style="cursor: move;"></polygon>

    </g>
     <g>
         <polygon class="home" name="商店4号" points="200,120 240,180 300,180 300,100 240,100 " fill="#000000"  flag="false" style="cursor: move;"></polygon>

     </g>
     <g>
         <rect name="商店5号" x="300" y="100" width="80" height="80"  fill="#000000" class="home" style="cursor: e-resize;"></rect>

     </g>
     <g>
         <polygon class="home" name="商店6号" points="420,100 420,160 440,160 440,180 500,180 500,120 540,120 540,100 " fill="#000000"  flag="false" style="cursor: move;"></polygon>

     </g>
     <g>
         <rect name="商店7号" x="520" y="120" width="20" height="60"  fill="#000000" class="clothes" style="cursor: se-resize;"></rect>

     </g>
        <g>
            <polygon class="shoes" name="商店8号" points="560,100 560,120 580,120 580,160 540,160 540,180 640,180 640,100 " fill="#000000"  flag="false" style="cursor: move;"></polygon>

        </g>
        <g>
            <rect x="640" y="100" name="商店9号" width="60" height="80"  fill="#000000" class="shoes" style="cursor: move;"></rect>

        </g>
        <g>
            <rect name="商店10号" x="700" y="100" width="80" height="80"  fill="#000000" class="home" style="cursor: e-resize;"></rect>

        </g>
        <g>
            <polygon name="商店11号" class="home" points="100,360 100,420 160,420 160,320 140,320 120,360 " fill="#000000"  flag="false" style="cursor: move;"></polygon>

        </g>
        <g transform="translate(0,0)">
            <polygon class="home" name="商店11-1号" points="160,320 160,420 260,420 280,400 280,320 " fill="#000000"  flag="false" style="cursor: move;" ></polygon>

        </g>
        <g transform="translate(0,0)">
            <polygon class="home" name="商店12号" points="200,260 140,320 280,320 280,260 " fill="#000000"  flag="false" style="cursor: move;"></polygon>

        </g>
        <g>
            <polygon class="home" name="商店13号" points="220,240 200,260 280,260 280,240 260,220 240,220 " fill="#000000"  flag="false" style="cursor: move;"></polygon>

        </g>
        <g>
            <polygon class="home" name="商店14号" points="520,220 500,240 500,260 580,260 580,220 " fill="#000000"  flag="false" style="cursor: move;"></polygon>

        </g>
        <g>
            <polygon class="home" name="商店15号" points="580,220 580,260 500,260 500,280 660,280 660,220 " fill="#000000"  flag="true" style="cursor: move;"></polygon>

        </g>
        <g>
            <polygon class="home" name="商店16号" points="660,340 500,340 500,280 660,280 " fill="#000000"  flag="true" style="cursor: move;"></polygon>

        </g>
        <g>
            <rect name="商店17号" x="500" y="340" width="120" height="80"  fill="#000000" class="home" style="cursor: move;"></rect>

        </g>
        <g>
            <rect name="商店18号" x="620" y="340" width="80" height="80"  fill="#000000" class="home" style="cursor: move;"></rect>

        </g>
        <g>
            <rect name="商店19号" x="700" y="340" width="40" height="80"  fill="#000000" class="clothes" style="cursor: move;"></rect>

        </g>
        <g>
            <rect name="商店20号" x="740" y="340" width="40" height="80"  fill="#000000" class="food" style="cursor: s-resize;"></rect>

        </g>
        <g>
            <rect name="商店21号" x="660" y="300" width="120" height="40"  fill="#000000" class="shoes" style="cursor: move;"></rect>

        </g>
        <g>
            <rect name="商店22号" x="660" y="280" width="120" height="20"  fill="#000000" class="clothes" style="cursor: s-resize;"></rect>

        </g>
        <g>
            <rect name="商店23号" x="660" y="260" width="120" height="20"  fill="#000000" class="food" style="cursor: s-resize;"></rect>

        </g>
        <g>
            <rect name="商店24号" x="660" y="220" width="1" height="95"  fill="#000000" class="shoes" style="cursor: e-resize;"></rect>

        </g>
        <g>
            <rect name="商店25号" x="720" y="220" width="60" height="40"  fill="#000000" class="home" style="cursor: se-resize;"></rect>

        </g>
        <g>
            <rect name="商店26号" x="320" y="260" width="140" height="120"  fill="#000000" class="food" style="cursor: move;" ></rect>

        </g>
        <g>
            <rect name="商店27号" x="80" y="520" width="60" height="40"  fill="#000000" class="food" style="cursor: move;"></rect>

        </g>
        <g>
            <rect name="商店28号"  x="140" y="520" width="60" height="40" fill="#000000" class="shoes" style="cursor: s-resize;"></rect>

        </g>
        <g>
            <polygon class="home" name="商店29号" points="120,460 120,480 100,480 100,520 200,520 200,460 " fill="#000000"  flag="true" style="cursor: move;"></polygon>

        </g>
        <g>
            <polygon class="food" name="商店30号" points="200,460 200,500 240,500 260,480 280,480 280,460 " fill="#000000"  flag="false" style="cursor: move;"></polygon>

        </g>
        <g>
            <rect name="商店31号" x="200" y="500" width="40" height="60"  fill="#000000" class="shoes" style="cursor: move;"></rect>

        </g>
        <g>
            <polygon class="home" name="商店32号" points="320,440 320,560 400,560 400,500 360,500 360,460 340,440 " fill="#000000"  flag="false" style="cursor: move;"></polygon>

        </g>
        <g>
            <polygon class="home" name="商店33号" points="480,480 480,560 540,560 540,440 520,440 500,460 500,480 " fill="#000000"  flag="false" style="cursor: move;"></polygon>

        </g>
        <g transform="translate(20,0)">
            <polygon class="home" name="商店34号" points="540,440 540,480 580,480 580,560 680,560 680,440 " fill="#000000"  flag="true" style="cursor: move;"></polygon>

        </g>
        <g>
            <rect name="商店35号" x="700" y="440" width="80" height="60"  fill="#000000" class="shoes" style="cursor: se-resize;"></rect>

        </g>
    </g>
</svg>