
<svg xmlns="http://www.w3.org/2000/svg"  width="100%" height="100%">
    <defs>
        <pattern id="grid" x="0" y="0" width="20" height="20" patternUnits="userSpaceOnUse">
            <path stroke="#f0f0f0" fill="none" d="M0,0H20V20"></path>
        </pattern>
    </defs>
    <rect id="background" width="100%" height="100%" fill="url(#grid)">
    </rect>
    <rect x="200" y="100" width="200" height="100" rx="0" ry="0" fill="#d2d2ff" stroke="#c0c0c0" flag="false"></rect>
    <rect x="400" y="100" width="40" height="100" rx="0" ry="0" fill="#d2d2ff" stroke="#c0c0c0" flag="false"></rect>
    <rect x="440" y="100" width="80" height="100" rx="0" ry="0" fill="#d2d2ff" stroke="#c0c0c0" flag="false"></rect>
    <rect x="520" y="100" width="280" height="100" rx="0" ry="0" fill="#d2d2ff" stroke="#c0c0c0" flag="false"></rect>
    <rect x="200" y="240" width="60" height="100" rx="0" ry="0" fill="#d2d2ff" stroke="#c0c0c0" flag="false"></rect>
    <rect x="260" y="240" width="200" height="100" rx="0" ry="0" fill="#d2d2ff" stroke="#c0c0c0" flag="false"></rect>
    <rect x="460" y="240" width="340" height="100" rx="0" ry="0" fill="#d2d2ff" stroke="#c0c0c0" flag="false"></rect>
    <rect id="path" x="200" y="200" width="600" height="40" rx="0" ry="0" fill="#ffc8ff" stroke="#c0c0c0" flag="false" stroke-width="1" transform="translate(0,0) rotate(0) scale(1)"></rect>
</svg>